<?xml version="1.0" encoding="utf-8"?>
<!-- Generator: Adobe Illustrator 24.1.1, SVG Export Plug-In . SVG Version: 6.00 Build 0)  -->
<svg version="1.1" id="Слой_1" xmlns="http://www.w3.org/2000/svg" xmlns:xlink="http://www.w3.org/1999/xlink" x="0px" y="0px"
	viewBox="0 0 30 30" style="enable-background:new 0 0 30 30;" xml:space="preserve">
<style type="text/css">
	.st0{fill:none;}
</style>
<path class="st0" d="M7.4,8.6C7.3,7.4,7.6,6.2,8.3,5.3C8.9,4.4,9.7,4,10.6,3.7c0.8-0.2,1.3,0.1,1.6,1c0.3,1.3,0.8,2.7,1,4.1
	c0.1,0.6-0.3,1.5-0.8,2c-1.1,1.1-0.9,1.9,0,3.5c0.3,0.5,0.7,1.4,1.5,2.6c0.8,1.2,1.3,1.9,2.3,1.3c1.2-0.6,2-0.2,2.9,0.7
	c0.6,0.7,1.3,1.3,1.9,2c0.9,1,0.8,1.7,0.2,2.5c-1.2,1.3-3.3,1.8-4.8,0.9c-0.8-0.5-1.7-1.1-2.3-1.9c-2.9-3.3-5-7.2-6.3-11.5
	C7.5,10,7.4,9.3,7.4,8.6z"/>
</svg>
